<svg width="22" height="22" viewBox="0 0 22 22" fill="none" xmlns="http://www.w3.org/2000/svg">
<path d="M22 11C22 4.939 17.061 0 11 0C4.939 0 0 4.939 0 11C0 14.19 1.375 17.061 3.553 19.074C3.553 19.085 3.553 19.085 3.542 19.096C3.652 19.206 3.784 19.294 3.894 19.393C3.96 19.448 4.015 19.503 4.081 19.547C4.279 19.712 4.499 19.866 4.708 20.02C4.785 20.075 4.851 20.119 4.928 20.174C5.137 20.317 5.357 20.449 5.588 20.57C5.665 20.614 5.753 20.669 5.83 20.713C6.05 20.834 6.281 20.944 6.523 21.043C6.611 21.087 6.699 21.131 6.787 21.164C7.029 21.263 7.271 21.351 7.513 21.428C7.601 21.461 7.689 21.494 7.777 21.516C8.041 21.593 8.305 21.659 8.569 21.725C8.646 21.747 8.723 21.769 8.811 21.78C9.119 21.846 9.427 21.89 9.746 21.923C9.79 21.923 9.834 21.934 9.878 21.945C10.252 21.978 10.626 22 11 22C11.374 22 11.748 21.978 12.111 21.945C12.155 21.945 12.199 21.934 12.243 21.923C12.562 21.89 12.87 21.846 13.178 21.78C13.255 21.769 13.332 21.736 13.42 21.725C13.684 21.659 13.959 21.604 14.212 21.516C14.3 21.483 14.388 21.45 14.476 21.428C14.718 21.34 14.971 21.263 15.202 21.164C15.29 21.131 15.378 21.087 15.466 21.043C15.697 20.944 15.928 20.834 16.159 20.713C16.247 20.669 16.324 20.614 16.401 20.57C16.621 20.438 16.841 20.317 17.061 20.174C17.138 20.13 17.204 20.075 17.281 20.02C17.501 19.866 17.71 19.712 17.908 19.547C17.974 19.492 18.029 19.437 18.095 19.393C18.216 19.294 18.337 19.195 18.447 19.096C18.447 19.085 18.447 19.085 18.436 19.074C20.625 17.061 22 14.19 22 11ZM16.434 16.467C13.453 14.465 8.569 14.465 5.566 16.467C5.082 16.786 4.686 17.16 4.356 17.567C2.684 15.873 1.65 13.552 1.65 11C1.65 5.841 5.841 1.65 11 1.65C16.159 1.65 20.35 5.841 20.35 11C20.35 13.552 19.316 15.873 17.644 17.567C17.325 17.16 16.918 16.786 16.434 16.467Z" fill="white"/>
<path d="M11 5.42261C8.723 5.42261 6.875 7.27061 6.875 9.54762C6.875 11.7806 8.624 13.5956 10.945 13.6616H11.044H11.121H11.143C13.365 13.5846 15.114 11.7806 15.125 9.54762C15.125 7.27061 13.277 5.42261 11 5.42261Z" fill="white"/>
</svg>
