<svg width="19" height="21" viewBox="0 0 19 21" fill="none" xmlns="http://www.w3.org/2000/svg">
<path d="M3.20565 17.6299C2.61129 17.6299 2.05591 17.4252 1.65642 17.0452C1.14976 16.5677 0.906166 15.8467 0.993859 15.0672L1.35437 11.9103C1.42258 11.3159 1.78309 10.5267 2.20206 10.098L10.2016 1.63086C12.199 -0.483497 14.2841 -0.541959 16.3985 1.45548C18.5128 3.45291 18.5713 5.53804 16.5739 7.6524L8.57438 16.1195C8.16515 16.558 7.40514 16.9672 6.81078 17.0648L3.67335 17.6006C3.50771 17.6103 3.36155 17.6299 3.20565 17.6299ZM13.3293 1.44573C12.579 1.44573 11.9262 1.91343 11.2636 2.61497L3.26412 11.0919C3.06924 11.2966 2.84514 11.7837 2.80617 12.0663L2.44565 15.2231C2.40668 15.5447 2.48463 15.8077 2.66001 15.9734C2.8354 16.139 3.09847 16.1975 3.42001 16.1488L6.55745 15.613C6.84001 15.5642 7.30771 15.3108 7.50258 15.1062L15.5021 6.63907C16.7103 5.35291 17.1487 4.1642 15.3852 2.50779C14.6057 1.75753 13.9334 1.44573 13.3293 1.44573Z" fill="white"/>
<path d="M14.7035 9.27934C14.684 9.27934 14.6548 9.27934 14.6353 9.27934C11.5953 8.97729 9.14968 6.6681 8.68199 3.64759C8.62353 3.2481 8.89635 2.87785 9.29583 2.80964C9.69532 2.75118 10.0656 3.024 10.1338 3.42349C10.504 5.78144 12.4138 7.59374 14.7912 7.82759C15.1907 7.86657 15.483 8.22708 15.444 8.62652C15.3953 8.99677 15.0738 9.27934 14.7035 9.27934Z" fill="white"/>
<path d="M18.2692 20.777H0.730769C0.331282 20.777 0 20.4457 0 20.0462C0 19.6467 0.331282 19.3154 0.730769 19.3154H18.2692C18.6687 19.3154 19 19.6467 19 20.0462C19 20.4457 18.6687 20.777 18.2692 20.777Z" fill="white"/>
</svg>
