<svg width="21" height="22" viewBox="0 0 21 22" fill="none" xmlns="http://www.w3.org/2000/svg">
<path d="M15.5809 21.4887H5.21307C2.44303 21.4887 0.682073 19.8195 0.523785 17.031L0.0093496 8.78536C-0.0697944 7.53602 0.355604 6.33666 1.2064 5.42713C2.04731 4.51762 3.23447 3.99789 4.4612 3.99789C4.77777 3.99789 5.08446 3.80799 5.23285 3.50815L5.94515 2.0789C6.52884 0.90952 7.99299 0 9.26921 0H11.5347C12.8109 0 14.2652 0.90952 14.8489 2.06891L15.5612 3.52814C15.7095 3.80799 16.0063 3.99789 16.3328 3.99789C17.5595 3.99789 18.7467 4.51762 19.5876 5.42713C20.4384 6.34665 20.8638 7.53602 20.7847 8.78536L20.2702 17.041C20.0921 19.8695 18.3807 21.4887 15.5809 21.4887ZM9.26921 1.49921C8.53712 1.49921 7.60717 2.0789 7.27081 2.74855L6.55851 4.18779C6.14301 4.99736 5.34168 5.4971 4.4612 5.4971C3.63019 5.4971 2.85852 5.83692 2.28474 6.4466C1.72084 7.05628 1.43394 7.85585 1.4933 8.68542L2.00774 16.9411C2.12644 18.96 3.20479 19.9894 5.21307 19.9894H15.5809C17.5793 19.9894 18.6577 18.96 18.7863 16.9411L19.3007 8.68542C19.3502 7.85585 19.0732 7.05628 18.5093 6.4466C17.9355 5.83692 17.1638 5.4971 16.3328 5.4971C15.4523 5.4971 14.651 4.99736 14.2355 4.20778L13.5133 2.74855C13.1868 2.0889 12.2569 1.5092 11.5248 1.5092H9.26921V1.49921Z" fill="white"/>
<path d="M11.8813 7.49604H8.91336C8.50775 7.49604 8.17139 7.15621 8.17139 6.74643C8.17139 6.33665 8.50775 5.99683 8.91336 5.99683H11.8813C12.2869 5.99683 12.6232 6.33665 12.6232 6.74643C12.6232 7.15621 12.2869 7.49604 11.8813 7.49604Z" fill="white"/>
<path d="M10.3973 17.4907C8.21097 17.4907 6.44012 15.7016 6.44012 13.4928C6.44012 11.2839 8.21097 9.49487 10.3973 9.49487C12.5837 9.49487 14.3545 11.2839 14.3545 13.4928C14.3545 15.7016 12.5837 17.4907 10.3973 17.4907ZM10.3973 10.9941C9.03209 10.9941 7.92407 12.1135 7.92407 13.4928C7.92407 14.872 9.03209 15.9914 10.3973 15.9914C11.7626 15.9914 12.8706 14.872 12.8706 13.4928C12.8706 12.1135 11.7626 10.9941 10.3973 10.9941Z" fill="white"/>
</svg>
