<svg width="18" height="22" viewBox="0 0 18 22" fill="none" xmlns="http://www.w3.org/2000/svg">
<path d="M8.61998 18.9682C6.33588 18.9682 4.05182 18.6055 1.88539 17.8801C1.06195 17.5958 0.434567 17.0175 0.160087 16.2626C-0.124196 15.5078 -0.0261671 14.6746 0.424764 13.9296L1.55209 12.0572C1.78736 11.6651 2.00302 10.8809 2.00302 10.4201V7.58714C2.00302 3.94048 4.97329 0.970215 8.61998 0.970215C12.2666 0.970215 15.2369 3.94048 15.2369 7.58714V10.4201C15.2369 10.8711 15.4526 11.6651 15.6878 12.067L16.8054 13.9296C17.2269 14.6354 17.3053 15.4882 17.021 16.2626C16.7367 17.0371 16.1192 17.6252 15.3447 17.8801C13.1881 18.6055 10.904 18.9682 8.61998 18.9682ZM8.61998 2.44064C5.78692 2.44064 3.47345 4.74431 3.47345 7.58714V10.4201C3.47345 11.1358 3.17937 12.1945 2.81666 12.812L1.68933 14.6844C1.47367 15.0471 1.41485 15.4294 1.54229 15.7529C1.65992 16.0862 1.95401 16.3411 2.35593 16.4783C6.45352 17.8507 10.7962 17.8507 14.8938 16.4783C15.2467 16.3607 15.5212 16.096 15.6486 15.7431C15.7761 15.3902 15.7466 15.0079 15.5506 14.6844L14.4233 12.812C14.0508 12.1749 13.7665 11.1259 13.7665 10.4103V7.58714C13.7665 4.74431 11.4628 2.44064 8.61998 2.44064Z" fill="white"/>
<path d="M10.443 2.70559C10.3744 2.70559 10.3058 2.69578 10.2372 2.67618C9.9529 2.59776 9.67842 2.53894 9.41375 2.49973C8.5805 2.3919 7.77667 2.45071 7.02185 2.67618C6.74737 2.7644 6.45331 2.67618 6.26706 2.47032C6.08081 2.26446 6.02199 1.97037 6.12982 1.7057C6.53174 0.676397 7.51199 0 8.62952 0C9.74704 0 10.7273 0.666594 11.1292 1.7057C11.2273 1.97037 11.1783 2.26446 10.992 2.47032C10.845 2.62716 10.6391 2.70559 10.443 2.70559Z" fill="white"/>
<path d="M8.61958 21.2034C7.6491 21.2034 6.70803 20.8113 6.02186 20.1251C5.33566 19.4389 4.94354 18.4978 4.94354 17.5273H6.41397C6.41397 18.1057 6.64921 18.6743 7.06093 19.086C7.47265 19.4977 8.04121 19.733 8.61958 19.733C9.83514 19.733 10.8252 18.7429 10.8252 17.5273H12.2957C12.2957 19.5565 10.6488 21.2034 8.61958 21.2034Z" fill="white"/>
</svg>
