<svg width="22" height="22" viewBox="0 0 22 22" fill="none" xmlns="http://www.w3.org/2000/svg">
<path d="M20.7049 16.1171L17.5742 8.7302C16.514 6.22413 14.5635 6.12308 13.2532 8.50789L11.3628 11.9538C10.4026 13.702 8.61218 13.8535 7.3719 12.2872L7.15185 12.0043C5.86155 10.3673 4.04113 10.5694 3.11092 12.4388L1.39052 15.9251C0.180245 18.3503 1.93065 21.2101 4.61126 21.2101H17.3742C19.9748 21.2101 21.7252 18.5322 20.7049 16.1171Z" stroke="white" stroke-width="1.5" stroke-linecap="round" stroke-linejoin="round"/>
<path d="M5.9916 7.06309C7.64883 7.06309 8.99229 5.70582 8.99229 4.03155C8.99229 2.35727 7.64883 1 5.9916 1C4.33436 1 2.99091 2.35727 2.99091 4.03155C2.99091 5.70582 4.33436 7.06309 5.9916 7.06309Z" stroke="white" stroke-width="1.5" stroke-linecap="round" stroke-linejoin="round"/>
</svg>
