<svg width="19" height="19" viewBox="0 0 19 19" fill="none" xmlns="http://www.w3.org/2000/svg">
<path d="M4.97812 0H3.17308C1.09253 0 0 1.09253 0 3.16358V4.96862C0 7.03968 1.09253 8.1322 3.16358 8.1322H4.96862C7.03968 8.1322 8.1322 7.03968 8.1322 4.96862V3.16358C8.1417 1.09253 7.04918 0 4.97812 0Z" fill="white"/>
<path d="M15.8364 0H14.0314C11.9603 0 10.8678 1.09253 10.8678 3.16358V4.96862C10.8678 7.03968 11.9603 8.1322 14.0314 8.1322H15.8364C17.9075 8.1322 19 7.03968 19 4.96862V3.16358C19 1.09253 17.9075 0 15.8364 0Z" fill="white"/>
<path d="M15.8364 10.8584H14.0314C11.9603 10.8584 10.8678 11.9509 10.8678 14.022V15.827C10.8678 17.8981 11.9603 18.9906 14.0314 18.9906H15.8364C17.9075 18.9906 19 17.8981 19 15.827V14.022C19 11.9509 17.9075 10.8584 15.8364 10.8584Z" fill="white"/>
<path d="M4.97812 10.8584H3.17308C1.09253 10.8584 0 11.9509 0 14.022V15.827C0 17.9076 1.09253 19.0001 3.16358 19.0001H4.96862C7.03968 19.0001 8.1322 17.9076 8.1322 15.8365V14.0315C8.1417 11.9509 7.04918 10.8584 4.97812 10.8584Z" fill="white"/>
</svg>
