<svg width="22" height="22" viewBox="0 0 22 22" fill="none" xmlns="http://www.w3.org/2000/svg">
<path d="M16.9247 21.976H5.07535C2.27163 21.976 0 19.6942 0 16.8904V9.30811C0 7.91645 0.859535 6.16668 1.96465 5.30715L7.48 1.00948C9.13767 -0.279822 11.7879 -0.341217 13.507 0.86622L19.8307 5.29692C21.0484 6.14622 22 7.96762 22 9.45137V16.9007C22 19.6942 19.7284 21.976 16.9247 21.976ZM8.42139 2.21692L2.90605 6.51459C2.17954 7.08761 1.53488 8.38715 1.53488 9.30811V16.8904C1.53488 18.8449 3.12093 20.4411 5.07535 20.4411H16.9247C18.8791 20.4411 20.4651 18.8551 20.4651 16.9007V9.45137C20.4651 8.46901 19.7591 7.10808 18.9507 6.55552L12.627 2.12482C11.4605 1.30622 9.53674 1.34715 8.42139 2.21692Z" fill="white"/>
<path d="M11 17.8832C10.5804 17.8832 10.2325 17.5353 10.2325 17.1158V14.046C10.2325 13.6265 10.5804 13.2786 11 13.2786C11.4195 13.2786 11.7674 13.6265 11.7674 14.046V17.1158C11.7674 17.5353 11.4195 17.8832 11 17.8832Z" fill="white"/>
</svg>
