<svg width="100" height="91" viewBox="0 0 100 91" fill="none" xmlns="http://www.w3.org/2000/svg">
<path d="M7.20107 76.555V72.61H13.0211V76.555H7.20107ZM5.95607 71.185C5.64107 71.185 5.53607 71.29 5.53607 71.605V77.575C5.53607 77.89 5.62607 77.98 5.94107 77.98H9.22607V81.085H3.91607V82.525H16.3061V81.085H10.9811V77.98H14.2661C14.5811 77.98 14.6861 77.875 14.6861 77.56V71.605C14.6861 71.29 14.5811 71.185 14.2661 71.185H5.95607ZM24.2727 75.985H22.5927V77.845H24.2727V75.985ZM32.4683 70.915C32.1533 70.915 32.0483 71.02 32.0483 71.335V75.565C32.0483 75.88 32.1383 75.985 32.4533 75.985H41.4833V74.545H33.7733V72.34H41.3483V70.915H32.4683ZM30.5033 78.775H42.8783V77.335H30.5033V78.775ZM41.7833 83.755V82.315H33.7583V79.585H32.0483V83.335C32.0483 83.65 32.1383 83.755 32.4533 83.755H41.7833ZM50.845 75.985H49.165V77.845H50.845V75.985ZM60.3606 70.87V72.76C60.3456 74.665 59.0706 76.315 56.8656 77.395L58.2006 78.535C59.5956 77.755 60.9006 76.54 61.2606 75.505C61.8306 76.51 63.0756 77.53 64.3656 78.19L65.4456 76.915C63.5556 76.255 62.1606 74.515 62.1606 72.73V70.87H60.3606ZM66.8106 70.585V72.97H64.0956V74.425H66.8106V80.44H68.4906V70.585H66.8106ZM68.8056 83.755V82.315H61.2156V79.33H59.5056V83.335C59.5056 83.65 59.5956 83.755 59.9106 83.755H68.8056ZM77.4172 75.985H75.7372V77.845H77.4172V75.985ZM84.5329 72.775H87.2329V73.87C87.2329 76.945 85.7929 79.06 83.5729 80.38L84.9679 81.505C86.3179 80.53 87.6379 79.09 88.1479 77.68C88.6579 78.97 89.8579 80.245 91.2829 81.175L92.4829 80.02C90.0829 78.655 89.0479 76.6 89.0479 73.945V72.775H91.7779V71.365H84.5329V72.775ZM95.2279 84.01V70.585H93.5329V84.01H95.2279Z" fill="#3DDC84"/>
<path d="M23.1129 54.6855H3.05371C5.33341 52.5108 7.61043 50.3361 9.89013 48.1613C14.2995 48.1613 18.7062 48.1613 23.1156 48.1613C23.1129 50.3361 23.1129 52.5108 23.1129 54.6855Z" fill="#3DDC84"/>
<path d="M30.5707 0.314453L9.56586 54.6855H3L24.0048 0.314453H30.5707Z" fill="#3DDC84"/>
<path d="M64.9511 0.314453L43.9462 54.6855H37.3804L58.3852 0.314453H64.9511Z" fill="#3DDC84"/>
<path d="M77.9005 0.314453L56.8957 54.6855H50.3298L71.3347 0.314453H77.9005Z" fill="#3DDC84"/>
<path d="M71.3989 0.314453L91.434 54.6855H97.9999L77.9648 0.314453H71.3989Z" fill="#3DDC84"/>
<path d="M23.7905 0.314453L37.1205 54.6855H43.6863L30.3564 0.314453H23.7905Z" fill="#3DDC84"/>
<path d="M77.8442 54.6855H97.9061C95.6264 52.5108 93.3494 50.3361 91.0697 48.1613C86.6603 48.1613 82.2536 48.1613 77.8442 48.1613C77.8442 50.3361 77.8442 52.5108 77.8442 54.6855Z" fill="#3DDC84"/>
<path d="M74.6752 33.1405C76.4698 33.1405 77.9247 31.6949 77.9247 29.9116C77.9247 28.1284 76.4698 26.6828 74.6752 26.6828C72.8806 26.6828 71.4258 28.1284 71.4258 29.9116C71.4258 31.6949 72.8806 33.1405 74.6752 33.1405Z" fill="#3DDC84"/>
</svg>
